{
	"asset":{
		"generator":"Khronos glTF Blender I/O v4.0.44",
		"version":"2.0"
	},
	"scene":0,
	"scenes":[
		{
			"name":"Scene",
			"nodes":[
				0,
				1,
				2
			]
		}
	],
	"nodes":[
		{
			"mesh":0,
			"name":"FaerieLight4",
			"translation":[
				-2.017796277999878,
				0.6813040971755981,
				1
			]
		},
		{
			"mesh":1,
			"name":"FaerieLight",
			"translation":[
				-2.017796277999878,
				0.6813040971755981,
				0
			]
		},
		{
			"mesh":2,
			"name":"FaerieLight2",
			"translation":[
				-2.017796277999878,
				0.6813040971755981,
				-1
			]
		}
	],
	"materials":[
		{
			"doubleSided":true,
			"emissiveFactor":[
				1,
				1,
				1
			],
			"name":"Emissive",
			"pbrMetallicRoughness":{
				"baseColorFactor":[
					0,
					0,
					0,
					1
				]
			}
		},
		{
			"doubleSided":true,
			"name":"Metal",
			"pbrMetallicRoughness":{
				"baseColorFactor":[
					0.800000011920929,
					0.800000011920929,
					0.800000011920929,
					1
				],
				"roughnessFactor":0.10000000149011612
			}
		},
		{
			"doubleSided":true,
			"name":"Socket",
			"pbrMetallicRoughness":{
				"baseColorFactor":[
					0,
					0,
					0,
					1
				],
				"metallicFactor":0,
				"roughnessFactor":0.10000000149011612
			}
		}
	],
	"meshes":[
		{
			"name":"NurbsPath.006",
			"primitives":[
				{
					"attributes":{
						"POSITION":0,
						"NORMAL":1,
						"TEXCOORD_0":2,
						"TEXCOORD_1":3,
						"TEXCOORD_2":4
					},
					"indices":5,
					"material":0
				},
				{
					"attributes":{
						"POSITION":6,
						"NORMAL":7,
						"TEXCOORD_0":8,
						"TEXCOORD_1":9,
						"TEXCOORD_2":10
					},
					"indices":11,
					"material":1
				},
				{
					"attributes":{
						"POSITION":12,
						"NORMAL":13,
						"TEXCOORD_0":14,
						"TEXCOORD_1":15,
						"TEXCOORD_2":16
					},
					"indices":17,
					"material":2
				}
			]
		},
		{
			"name":"NurbsPath.010",
			"primitives":[
				{
					"attributes":{
						"POSITION":18,
						"NORMAL":19,
						"TEXCOORD_0":20,
						"TEXCOORD_1":21,
						"TEXCOORD_2":22
					},
					"indices":23,
					"material":0
				},
				{
					"attributes":{
						"POSITION":24,
						"NORMAL":25,
						"TEXCOORD_0":26,
						"TEXCOORD_1":27,
						"TEXCOORD_2":28
					},
					"indices":29,
					"material":1
				},
				{
					"attributes":{
						"POSITION":30,
						"NORMAL":31,
						"TEXCOORD_0":32,
						"TEXCOORD_1":33,
						"TEXCOORD_2":34
					},
					"indices":35,
					"material":2
				}
			]
		},
		{
			"name":"NurbsPath.011",
			"primitives":[
				{
					"attributes":{
						"POSITION":36,
						"NORMAL":37,
						"TEXCOORD_0":38,
						"TEXCOORD_1":39,
						"TEXCOORD_2":40
					},
					"indices":41,
					"material":0
				},
				{
					"attributes":{
						"POSITION":42,
						"NORMAL":43,
						"TEXCOORD_0":44,
						"TEXCOORD_1":45,
						"TEXCOORD_2":46
					},
					"indices":47,
					"material":1
				},
				{
					"attributes":{
						"POSITION":48,
						"NORMAL":49,
						"TEXCOORD_0":50,
						"TEXCOORD_1":51,
						"TEXCOORD_2":52
					},
					"indices":53,
					"material":2
				}
			]
		}
	],
	"accessors":[
		{
			"bufferView":0,
			"componentType":5126,
			"count":748,
			"max":[
				4.022259712219238,
				-0.09981942176818848,
				0.05791584029793739
			],
			"min":[
				0.3645896911621094,
				-0.3135359287261963,
				-0.06005493551492691
			],
			"type":"VEC3"
		},
		{
			"bufferView":1,
			"componentType":5126,
			"count":748,
			"type":"VEC3"
		},
		{
			"bufferView":2,
			"componentType":5126,
			"count":748,
			"type":"VEC2"
		},
		{
			"bufferView":3,
			"componentType":5126,
			"count":748,
			"type":"VEC2"
		},
		{
			"bufferView":4,
			"componentType":5126,
			"count":748,
			"type":"VEC2"
		},
		{
			"bufferView":5,
			"componentType":5123,
			"count":2805,
			"type":"SCALAR"
		},
		{
			"bufferView":6,
			"componentType":5126,
			"count":1177,
			"max":[
				4.233669757843018,
				0.001789689064025879,
				0.029726644977927208
			],
			"min":[
				0.2088315486907959,
				-0.26478445529937744,
				-0.032583341002464294
			],
			"type":"VEC3"
		},
		{
			"bufferView":7,
			"componentType":5126,
			"count":1177,
			"type":"VEC3"
		},
		{
			"bufferView":8,
			"componentType":5126,
			"count":1177,
			"type":"VEC2"
		},
		{
			"bufferView":9,
			"componentType":5126,
			"count":1177,
			"type":"VEC2"
		},
		{
			"bufferView":10,
			"componentType":5126,
			"count":1177,
			"type":"VEC2"
		},
		{
			"bufferView":11,
			"componentType":5123,
			"count":3774,
			"type":"SCALAR"
		},
		{
			"bufferView":12,
			"componentType":5126,
			"count":524,
			"max":[
				4.270773887634277,
				0,
				0.05209827423095703
			],
			"min":[
				-0.04285407066345215,
				-0.2192997932434082,
				-0.05209827423095703
			],
			"type":"VEC3"
		},
		{
			"bufferView":13,
			"componentType":5126,
			"count":524,
			"type":"VEC3"
		},
		{
			"bufferView":14,
			"componentType":5126,
			"count":524,
			"type":"VEC2"
		},
		{
			"bufferView":15,
			"componentType":5126,
			"count":524,
			"type":"VEC2"
		},
		{
			"bufferView":16,
			"componentType":5126,
			"count":524,
			"type":"VEC2"
		},
		{
			"bufferView":17,
			"componentType":5123,
			"count":1512,
			"type":"SCALAR"
		},
		{
			"bufferView":18,
			"componentType":5126,
			"count":816,
			"max":[
				3.8181045055389404,
				-0.10792875289916992,
				0.057599782943725586
			],
			"min":[
				0.29346680641174316,
				-0.6195751428604126,
				-0.05844109132885933
			],
			"type":"VEC3"
		},
		{
			"bufferView":19,
			"componentType":5126,
			"count":816,
			"type":"VEC3"
		},
		{
			"bufferView":20,
			"componentType":5126,
			"count":816,
			"type":"VEC2"
		},
		{
			"bufferView":21,
			"componentType":5126,
			"count":816,
			"type":"VEC2"
		},
		{
			"bufferView":22,
			"componentType":5126,
			"count":816,
			"type":"VEC2"
		},
		{
			"bufferView":23,
			"componentType":5123,
			"count":3060,
			"type":"SCALAR"
		},
		{
			"bufferView":24,
			"componentType":5126,
			"count":1094,
			"max":[
				4.038112163543701,
				0.001789689064025879,
				0.029699116945266724
			],
			"min":[
				0.2088315486907959,
				-0.5690526962280273,
				-0.03115571290254593
			],
			"type":"VEC3"
		},
		{
			"bufferView":25,
			"componentType":5126,
			"count":1094,
			"type":"VEC3"
		},
		{
			"bufferView":26,
			"componentType":5126,
			"count":1094,
			"type":"VEC2"
		},
		{
			"bufferView":27,
			"componentType":5126,
			"count":1094,
			"type":"VEC2"
		},
		{
			"bufferView":28,
			"componentType":5126,
			"count":1094,
			"type":"VEC2"
		},
		{
			"bufferView":29,
			"componentType":5123,
			"count":3288,
			"type":"SCALAR"
		},
		{
			"bufferView":30,
			"componentType":5126,
			"count":437,
			"max":[
				4.075835227966309,
				0,
				0.05209827423095703
			],
			"min":[
				-0.04285407066345215,
				-0.52538001537323,
				-0.05209827423095703
			],
			"type":"VEC3"
		},
		{
			"bufferView":31,
			"componentType":5126,
			"count":437,
			"type":"VEC3"
		},
		{
			"bufferView":32,
			"componentType":5126,
			"count":437,
			"type":"VEC2"
		},
		{
			"bufferView":33,
			"componentType":5126,
			"count":437,
			"type":"VEC2"
		},
		{
			"bufferView":34,
			"componentType":5126,
			"count":437,
			"type":"VEC2"
		},
		{
			"bufferView":35,
			"componentType":5123,
			"count":1092,
			"type":"SCALAR"
		},
		{
			"bufferView":36,
			"componentType":5126,
			"count":884,
			"max":[
				3.8615989685058594,
				-0.15849614143371582,
				0.06276632845401764
			],
			"min":[
				0.30182945728302,
				-0.6289700269699097,
				-0.05844108760356903
			],
			"type":"VEC3"
		},
		{
			"bufferView":37,
			"componentType":5126,
			"count":884,
			"type":"VEC3"
		},
		{
			"bufferView":38,
			"componentType":5126,
			"count":884,
			"type":"VEC2"
		},
		{
			"bufferView":39,
			"componentType":5126,
			"count":884,
			"type":"VEC2"
		},
		{
			"bufferView":40,
			"componentType":5126,
			"count":884,
			"type":"VEC2"
		},
		{
			"bufferView":41,
			"componentType":5123,
			"count":3315,
			"type":"SCALAR"
		},
		{
			"bufferView":42,
			"componentType":5126,
			"count":1231,
			"max":[
				4.035227298736572,
				0.001789689064025879,
				0.035541120916604996
			],
			"min":[
				0.2088315486907959,
				-0.5784475803375244,
				-0.031106632202863693
			],
			"type":"VEC3"
		},
		{
			"bufferView":43,
			"componentType":5126,
			"count":1231,
			"type":"VEC3"
		},
		{
			"bufferView":44,
			"componentType":5126,
			"count":1231,
			"type":"VEC2"
		},
		{
			"bufferView":45,
			"componentType":5126,
			"count":1231,
			"type":"VEC2"
		},
		{
			"bufferView":46,
			"componentType":5126,
			"count":1231,
			"type":"VEC2"
		},
		{
			"bufferView":47,
			"componentType":5123,
			"count":3762,
			"type":"SCALAR"
		},
		{
			"bufferView":48,
			"componentType":5126,
			"count":496,
			"max":[
				4.07583475112915,
				0,
				0.05209828540682793
			],
			"min":[
				-0.04285407066345215,
				-0.5363643169403076,
				-0.05209828540682793
			],
			"type":"VEC3"
		},
		{
			"bufferView":49,
			"componentType":5126,
			"count":496,
			"type":"VEC3"
		},
		{
			"bufferView":50,
			"componentType":5126,
			"count":496,
			"type":"VEC2"
		},
		{
			"bufferView":51,
			"componentType":5126,
			"count":496,
			"type":"VEC2"
		},
		{
			"bufferView":52,
			"componentType":5126,
			"count":496,
			"type":"VEC2"
		},
		{
			"bufferView":53,
			"componentType":5123,
			"count":1332,
			"type":"SCALAR"
		}
	],
	"bufferViews":[
		{
			"buffer":0,
			"byteLength":8976,
			"byteOffset":0,
			"target":34962
		},
		{
			"buffer":0,
			"byteLength":8976,
			"byteOffset":8976,
			"target":34962
		},
		{
			"buffer":0,
			"byteLength":5984,
			"byteOffset":17952,
			"target":34962
		},
		{
			"buffer":0,
			"byteLength":5984,
			"byteOffset":23936,
			"target":34962
		},
		{
			"buffer":0,
			"byteLength":5984,
			"byteOffset":29920,
			"target":34962
		},
		{
			"buffer":0,
			"byteLength":5610,
			"byteOffset":35904,
			"target":34963
		},
		{
			"buffer":0,
			"byteLength":14124,
			"byteOffset":41516,
			"target":34962
		},
		{
			"buffer":0,
			"byteLength":14124,
			"byteOffset":55640,
			"target":34962
		},
		{
			"buffer":0,
			"byteLength":9416,
			"byteOffset":69764,
			"target":34962
		},
		{
			"buffer":0,
			"byteLength":9416,
			"byteOffset":79180,
			"target":34962
		},
		{
			"buffer":0,
			"byteLength":9416,
			"byteOffset":88596,
			"target":34962
		},
		{
			"buffer":0,
			"byteLength":7548,
			"byteOffset":98012,
			"target":34963
		},
		{
			"buffer":0,
			"byteLength":6288,
			"byteOffset":105560,
			"target":34962
		},
		{
			"buffer":0,
			"byteLength":6288,
			"byteOffset":111848,
			"target":34962
		},
		{
			"buffer":0,
			"byteLength":4192,
			"byteOffset":118136,
			"target":34962
		},
		{
			"buffer":0,
			"byteLength":4192,
			"byteOffset":122328,
			"target":34962
		},
		{
			"buffer":0,
			"byteLength":4192,
			"byteOffset":126520,
			"target":34962
		},
		{
			"buffer":0,
			"byteLength":3024,
			"byteOffset":130712,
			"target":34963
		},
		{
			"buffer":0,
			"byteLength":9792,
			"byteOffset":133736,
			"target":34962
		},
		{
			"buffer":0,
			"byteLength":9792,
			"byteOffset":143528,
			"target":34962
		},
		{
			"buffer":0,
			"byteLength":6528,
			"byteOffset":153320,
			"target":34962
		},
		{
			"buffer":0,
			"byteLength":6528,
			"byteOffset":159848,
			"target":34962
		},
		{
			"buffer":0,
			"byteLength":6528,
			"byteOffset":166376,
			"target":34962
		},
		{
			"buffer":0,
			"byteLength":6120,
			"byteOffset":172904,
			"target":34963
		},
		{
			"buffer":0,
			"byteLength":13128,
			"byteOffset":179024,
			"target":34962
		},
		{
			"buffer":0,
			"byteLength":13128,
			"byteOffset":192152,
			"target":34962
		},
		{
			"buffer":0,
			"byteLength":8752,
			"byteOffset":205280,
			"target":34962
		},
		{
			"buffer":0,
			"byteLength":8752,
			"byteOffset":214032,
			"target":34962
		},
		{
			"buffer":0,
			"byteLength":8752,
			"byteOffset":222784,
			"target":34962
		},
		{
			"buffer":0,
			"byteLength":6576,
			"byteOffset":231536,
			"target":34963
		},
		{
			"buffer":0,
			"byteLength":5244,
			"byteOffset":238112,
			"target":34962
		},
		{
			"buffer":0,
			"byteLength":5244,
			"byteOffset":243356,
			"target":34962
		},
		{
			"buffer":0,
			"byteLength":3496,
			"byteOffset":248600,
			"target":34962
		},
		{
			"buffer":0,
			"byteLength":3496,
			"byteOffset":252096,
			"target":34962
		},
		{
			"buffer":0,
			"byteLength":3496,
			"byteOffset":255592,
			"target":34962
		},
		{
			"buffer":0,
			"byteLength":2184,
			"byteOffset":259088,
			"target":34963
		},
		{
			"buffer":0,
			"byteLength":10608,
			"byteOffset":261272,
			"target":34962
		},
		{
			"buffer":0,
			"byteLength":10608,
			"byteOffset":271880,
			"target":34962
		},
		{
			"buffer":0,
			"byteLength":7072,
			"byteOffset":282488,
			"target":34962
		},
		{
			"buffer":0,
			"byteLength":7072,
			"byteOffset":289560,
			"target":34962
		},
		{
			"buffer":0,
			"byteLength":7072,
			"byteOffset":296632,
			"target":34962
		},
		{
			"buffer":0,
			"byteLength":6630,
			"byteOffset":303704,
			"target":34963
		},
		{
			"buffer":0,
			"byteLength":14772,
			"byteOffset":310336,
			"target":34962
		},
		{
			"buffer":0,
			"byteLength":14772,
			"byteOffset":325108,
			"target":34962
		},
		{
			"buffer":0,
			"byteLength":9848,
			"byteOffset":339880,
			"target":34962
		},
		{
			"buffer":0,
			"byteLength":9848,
			"byteOffset":349728,
			"target":34962
		},
		{
			"buffer":0,
			"byteLength":9848,
			"byteOffset":359576,
			"target":34962
		},
		{
			"buffer":0,
			"byteLength":7524,
			"byteOffset":369424,
			"target":34963
		},
		{
			"buffer":0,
			"byteLength":5952,
			"byteOffset":376948,
			"target":34962
		},
		{
			"buffer":0,
			"byteLength":5952,
			"byteOffset":382900,
			"target":34962
		},
		{
			"buffer":0,
			"byteLength":3968,
			"byteOffset":388852,
			"target":34962
		},
		{
			"buffer":0,
			"byteLength":3968,
			"byteOffset":392820,
			"target":34962
		},
		{
			"buffer":0,
			"byteLength":3968,
			"byteOffset":396788,
			"target":34962
		},
		{
			"buffer":0,
			"byteLength":2664,
			"byteOffset":400756,
			"target":34963
		}
	],
	"buffers":[
		{
			"byteLength":403420,
			"uri":"Sketchfab_2022_01_26_07_00_02.bin"
		}
	]
}
